<svg version="1.1" id="Layer_1" xmlns="http://www.w3.org/2000/svg" xmlns:xlink="http://www.w3.org/1999/xlink" x="0px" y="0px"width="91.667px" height="101.832px" viewBox="0 0 91.667 101.832" enable-background="new 0 0 91.667 101.832"
	 xml:space="preserve">
<path fill="#010101" d="M49.621,36.404l1.432-1.835c0.271-0.349,0.32-0.823,0.127-1.219c-0.133-0.271-0.363-0.472-0.638-0.574
	l-1.344-1.286l-0.255-0.244v-1.121V28.69h-3.588v-8.625h0.008l0.611-0.405v-1.011h-1.123v-5.933H44.49V9.803h-0.487V5.031V4.97V0
	h-1.141v4.969V5.03v4.771h-0.488v2.913h-0.362v5.933h-1.096v1.006l0.614,0.41h0.003v8.625h-3.592v1.435v1.106l-0.268,0.258
	l-1.334,1.287c-0.273,0.102-0.503,0.304-0.635,0.575c-0.193,0.399-0.143,0.873,0.131,1.221l1.429,1.818v0.016
	c0,0.009,0.001,0.018,0.001,0.027c-0.469,0.294-0.781,0.807-0.781,1.392c0,0.911,0.755,1.652,1.684,1.652h3.163l-2.542,58.612h8.943
	l-2.094-58.612h3.078c0.928,0,1.684-0.741,1.684-1.652c0-0.585-0.312-1.098-0.778-1.392C49.622,36.423,49.622,36.414,49.621,36.404
	L49.621,36.404L49.621,36.404z"/>
<path fill="#010101" d="M61.916,81.468c0.478,0,0.861,0.385,0.861,0.86c0,0.477-0.384,0.86-0.861,0.86
	c-0.475,0-0.858-0.384-0.858-0.86C61.058,81.853,61.443,81.468,61.916,81.468z M80.798,82.341c0,0.477,0.384,0.86,0.86,0.86
	c0.475,0,0.858-0.384,0.858-0.86c0-0.476-0.384-0.86-0.858-0.86C81.182,81.48,80.798,81.865,80.798,82.341z M89.278,73.233V90.5
	l-0.598,4.98H85.16v2.607h-3.088v-2.573H71.787v-0.069v0.056H61.502v2.573h-3.088v-2.607h-3.52l-0.598-4.98V73.221
	c0,0,1.768-10.757,2.275-14.028c0.68-4.366,6.938-4.2,6.938-4.2h4.266c0,0,0-0.88,0-1.793c0-0.914,0.914-0.914,0.914-0.914h2.042
	v-3.901h1.062v0.013h1.047v3.902h2.043c0,0,0.913,0,0.913,0.913s0,1.793,0,1.793h4.267c0,0,6.259-0.166,6.938,4.2
	C87.511,62.477,89.278,73.233,89.278,73.233z M82.927,62.276H72.261v12.675h13.697v-0.199c0,0-0.714-8.367-0.937-10.435
	C84.8,62.251,82.927,62.276,82.927,62.276z M81.658,80.847c-0.826,0-1.494,0.668-1.494,1.494c0,0.825,0.668,1.494,1.494,1.494
	c0.824,0,1.492-0.669,1.492-1.494C83.15,81.515,82.482,80.847,81.658,80.847z M71.787,84.469v0.013l0,0
	c1.252,0,2.267-1.014,2.267-2.267c0-1.251-1.015-2.266-2.267-2.266c0,0-0.001,0-0.002,0v-0.013
	c-1.251,0.001-2.266,1.015-2.266,2.267C69.52,83.454,70.536,84.469,71.787,84.469L71.787,84.469z M62.332,58.761
	c0,0.743,0.603,1.345,1.346,1.345h8.116v0.014h8.104c0.742,0,1.346-0.603,1.346-1.345c0-0.744-0.604-1.346-1.346-1.346H71.78v-0.013
	h-8.104C62.935,57.416,62.332,58.018,62.332,58.761z M57.617,74.94h13.697V62.263H60.648c0,0-1.874-0.023-2.096,2.043
	c-0.221,2.068-0.936,10.436-0.936,10.436V74.94z M61.916,80.834c-0.824,0-1.492,0.668-1.492,1.494c0,0.825,0.668,1.494,1.492,1.494
	c0.827,0,1.495-0.669,1.495-1.494C63.411,81.502,62.743,80.834,61.916,80.834z M87.567,90.865l-15.78,0.033v-3.215v3.202
	l-15.78-0.032l0.415,3.304h15.373v0.013h15.357L87.567,90.865z M71.346,74.858l-2.288-0.72l0.035-0.114l-7.736-2.435l-0.118,0.38
	l7.735,2.435l0.023-0.075l2.288,0.719L71.346,74.858z M82.332,71.97l-0.119-0.38l-7.737,2.435l0.036,0.114l-2.288,0.72l0.061,0.189
	l2.287-0.719l0.024,0.075L82.332,71.97z"/>
<g id="Your_Icon">
	<path fill="#010101" d="M10.425,94.038h2.316l-4.633,4.05H5.793L10.425,94.038z"/>
	<path fill="#010101" d="M33.588,61.027c0-1.158-3.475-4.633-15.057-4.633c-11.58,0-15.055,3.475-15.055,4.633s0,25.479,0,25.479
		c0,1.772,5.211,1.736,5.211,1.736v1.737h1.737v2.896h2.316V89.98h11.581v2.896h2.316V89.98h1.737v-1.737
		c0,0,5.212,0.035,5.212-1.736C33.588,86.507,33.588,62.186,33.588,61.027z M15.057,59.877h6.949v2.309h-6.949V59.877z
		 M22.006,65.081v13.897h-6.949V65.081H22.006z M5.793,65.081h6.948v13.897c-4.054,0-6.948-2.896-6.948-4.054
		S5.793,65.081,5.793,65.081z M31.271,74.925c0,1.158-3.475,4.054-6.949,4.054V65.081h6.949
		C31.271,65.081,31.271,73.767,31.271,74.925z M8.108,84.77c0-0.961-0.777-1.737-1.737-1.737c-0.959,0-1.736,0.776-1.736,1.737
		c0,0.959,0.777,1.737,1.736,1.737C7.331,86.507,8.108,85.729,8.108,84.77z M11.004,85.928c0,0.639-0.52,1.158-1.158,1.158
		s-1.158-0.52-1.158-1.158c0-0.64,0.52-1.158,1.158-1.158S11.004,85.288,11.004,85.928z M11.004,61.027
		c0,0.64-0.52,1.158-1.158,1.158s-1.158-0.519-1.158-1.158s0.52-1.158,1.158-1.158S11.004,60.388,11.004,61.027z M28.376,61.027
		c0,0.64-0.519,1.158-1.158,1.158s-1.158-0.519-1.158-1.158s0.519-1.158,1.158-1.158S28.376,60.388,28.376,61.027z M28.376,85.928
		c0,0.639-0.519,1.158-1.158,1.158s-1.158-0.52-1.158-1.158c0-0.64,0.519-1.158,1.158-1.158S28.376,85.288,28.376,85.928z
		 M32.43,84.77c0-0.961-0.778-1.737-1.738-1.737c-0.959,0-1.736,0.776-1.736,1.737c0,0.959,0.777,1.737,1.736,1.737
		C31.651,86.507,32.43,85.729,32.43,84.77z M33.588,78.979c0,0-6.37,6.37-15.057,6.37c-8.686,0-15.055-6.37-15.055-6.37v-1.737
		c0,0,5.855,5.212,15.055,5.212c8.687,0,15.057-5.212,15.057-5.212V78.979z"/>
	<path fill="#010101" d="M31.271,98.088h-2.316l-4.633-4.05h2.316L31.271,98.088z"/>
</g>
</svg>